<svg width="150" height="183" viewBox="0 0 150 183" fill="none" xmlns="http://www.w3.org/2000/svg">
<path d="M116.027 161.992C127.225 161.992 135.689 157.988 141.418 149.98C143.046 150.892 144.38 151.738 145.422 152.52C148.091 154.603 149.426 157.565 149.426 161.406C149.426 167.526 146.984 172.539 142.102 176.445C137.219 180.417 131.555 182.402 125.109 182.402C118.729 182.402 112.935 181.816 107.727 180.645C102.583 179.473 98.3516 178.203 95.0312 176.836C86.1771 173.06 74.7513 171.172 60.7539 171.172C59.1914 168.112 58.4102 164.922 58.4102 161.602C58.4102 158.281 58.7357 156.003 59.3867 154.766C63.3581 154.049 66.8411 153.691 69.8359 153.691C72.8958 153.691 75.6302 153.887 78.0391 154.277C80.513 154.733 82.6615 155.254 84.4844 155.84C86.3073 156.491 88.3581 157.174 90.6367 157.891C92.9805 158.607 95.2591 159.258 97.4727 159.844C102.616 161.276 108.801 161.992 116.027 161.992ZM145.617 71.7578C145.617 90.3125 141.451 106.003 133.117 118.828C124.784 131.589 112.805 140.312 97.1797 145C89.6927 147.214 81.5547 148.32 72.7656 148.32C64.0417 148.32 55.2852 146.758 46.4961 143.633C37.707 140.443 29.8294 135.983 22.8633 130.254C15.9622 124.46 10.4284 117.07 6.26172 108.086C2.09505 99.1016 0.0117188 89.2057 0.0117188 78.3984C0.0117188 58.2161 4.66667 41.8424 13.9766 29.2773C23.2865 16.7122 36.6979 8.08594 54.2109 3.39844C60.2656 1.77083 66.7109 0.957031 73.5469 0.957031C80.4479 0.957031 87.3815 1.90104 94.3477 3.78906C101.314 5.67708 107.857 8.57422 113.977 12.4805C120.161 16.3867 125.63 21.0417 130.383 26.4453C140.539 38.0339 145.617 53.138 145.617 71.7578ZM44.6406 117.852C48.6771 123.06 53.3646 127.064 58.7031 129.863C64.0417 132.663 69.6732 134.062 75.5977 134.062C81.5221 134.062 86.763 132.988 91.3203 130.84C95.9427 128.691 99.7188 125.859 102.648 122.344C105.578 118.763 108.02 114.531 109.973 109.648C113.488 100.859 115.246 90.4427 115.246 78.3984C115.246 60.1042 110.917 45.0326 102.258 33.1836C93.599 21.3346 82.987 15.4102 70.4219 15.4102C65.474 15.4102 60.6562 16.3216 55.9688 18.1445C51.3464 19.9674 47.3424 22.8971 43.957 26.9336C40.6367 30.9049 38.1302 35.4948 36.4375 40.7031C33.1823 50.3385 31.5547 60.332 31.5547 70.6836C31.5547 81.0352 32.7266 90.1823 35.0703 98.125C37.4141 106.068 40.6042 112.643 44.6406 117.852Z" fill="black"/>
</svg>
